# xmcd
#
# Track frame offsets:
#	150
#	15471
#	27325
#	38228
#	48943
#	60730
#	72713
#	89917
#	103128
#	117713
#	132029
#	145415
#
# Disc length: 2109 seconds
#
# Revision: 0
# Processed by: cddbd v1.5.1PL0 Copyright (c) Steve Scherf et al.
# Submitted via: dBpowerAMP V4.0
#
DISCID=b6083b0c
DTITLE=BR5-49 - Tangled in the Pines
DYEAR=1900
DGENRE=
TTITLE0=That's What I Get
TTITLE1=I'm All Right (For the Shape I'm In)
TTITLE2=Ain't Got Time
TTITLE3=She's Talking to Someone (She's Not Talking to Me
TTITLE4=Tangled in the Pines
TTITLE5=No Train to Memphis
TTITLE6=Movin' the Country
TTITLE7=Run a Mile
TTITLE8=When I Come Home
TTITLE9=No Friend of Mine
TTITLE10=Honky Tonkin' Lifestyle
TTITLE11=Way Too Late (To Go Home Early Now)
EXTD=
EXTT0=
EXTT1=
EXTT2=
EXTT3=
EXTT4=
EXTT5=
EXTT6=
EXTT7=
EXTT8=
EXTT9=
EXTT10=
EXTT11=
PLAYORDER=
